<svg transform="scale(2)" id="_0679_Video_Call_4" data-name="0679_Video Call 4" xmlns="http://www.w3.org/2000/svg" viewBox="0 0 500 500" class="show_show__wrapper__graphic__5Waiy "><title>React</title><defs><style>
      .cls-1 {
        fill: #68e1fd;
      }

      .cls-1, .cls-2, .cls-3 {
        stroke-width: 0px;
      }

      .cls-2 {
        fill: #fff;
      }

      .cls-3 {
        fill: #231f20;
      }
    </style></defs><g id="Screen"><g><rect class="cls-2" x="98.58" y="54.51" width="326.71" height="198.96" rx="10.81" ry="10.81"></rect><path class="cls-3" d="M414.48,254.22H109.39c-6.37,0-11.56-5.18-11.56-11.56V65.32c0-6.37,5.18-11.56,11.56-11.56h305.09c6.37,0,11.56,5.18,11.56,11.56v177.34c0,6.37-5.18,11.56-11.56,11.56ZM109.39,55.26c-5.54,0-10.06,4.51-10.06,10.06v177.34c0,5.55,4.51,10.06,10.06,10.06h305.09c5.55,0,10.06-4.51,10.06-10.06V65.32c0-5.55-4.51-10.06-10.06-10.06H109.39Z"></path></g><g><path class="cls-2" d="M98.58,77.15h326.71v166.14c0,5.62-4.56,10.17-10.17,10.17H108.75c-5.62,0-10.17-4.56-10.17-10.17V77.15h0Z"></path><path class="cls-3" d="M415.11,254.22H108.75c-6.02,0-10.92-4.9-10.92-10.92V77.15c0-.41.34-.75.75-.75h326.71c.41,0,.75.34.75.75v166.14c0,6.02-4.9,10.92-10.92,10.92ZM99.33,77.9v165.39c0,5.2,4.23,9.42,9.42,9.42h306.36c5.2,0,9.42-4.23,9.42-9.42V77.9H99.33Z"></path></g><g><path class="cls-2" d="M414.82,95.42v139.79c0,4.07-3.3,7.36-7.37,7.36h-209.04c-4.07,0-7.37-3.29-7.37-7.36V95.42c0-4.07,3.3-7.36,7.37-7.36h209.04c4.07,0,7.37,3.29,7.37,7.36Z"></path><path class="cls-3" d="M407.45,243.32h-209.04c-4.48,0-8.12-3.64-8.12-8.11V95.42c0-4.47,3.64-8.11,8.12-8.11h209.04c4.48,0,8.12,3.64,8.12,8.11v139.79c0,4.47-3.64,8.11-8.12,8.11ZM198.41,88.81c-3.65,0-6.62,2.96-6.62,6.61v139.79c0,3.64,2.97,6.61,6.62,6.61h209.04c3.65,0,6.62-2.96,6.62-6.61V95.42c0-3.64-2.97-6.61-6.62-6.61h-209.04Z"></path></g><circle class="cls-1" cx="144.81" cy="202.6" r="21.46"></circle><g><circle class="cls-1" cx="112.29" cy="66.33" r="4.65"></circle><circle class="cls-3" cx="129.51" cy="66.33" r="4.65"></circle><g><circle class="cls-2" cx="146.73" cy="66.33" r="4.65"></circle><path class="cls-3" d="M146.73,71.73c-2.98,0-5.4-2.42-5.4-5.4s2.42-5.4,5.4-5.4,5.4,2.42,5.4,5.4-2.42,5.4-5.4,5.4ZM146.73,62.43c-2.15,0-3.9,1.75-3.9,3.9s1.75,3.9,3.9,3.9,3.9-1.75,3.9-3.9-1.75-3.9-3.9-3.9Z"></path></g></g><g><g><g><rect class="cls-2" x="106.03" y="93.41" width="65.63" height="15.38" rx="7.69" ry="7.69"></rect><path class="cls-3" d="M163.97,109.54h-50.25c-4.65,0-8.44-3.79-8.44-8.44s3.79-8.44,8.44-8.44h50.25c4.65,0,8.44,3.79,8.44,8.44s-3.79,8.44-8.44,8.44ZM113.71,94.16c-3.83,0-6.94,3.11-6.94,6.94s3.11,6.94,6.94,6.94h50.25c3.83,0,6.94-3.11,6.94-6.94s-3.11-6.94-6.94-6.94h-50.25Z"></path></g><circle class="cls-1" cx="113.6" cy="101.1" r="4.48"></circle></g><g><path class="cls-3" d="M142.09,99.99h-18.38c-.41,0-.75-.34-.75-.75s.34-.75.75-.75h18.38c.41,0,.75.34.75.75s-.34.75-.75.75Z"></path><path class="cls-3" d="M163.04,103.71h-39.33c-.41,0-.75-.34-.75-.75s.34-.75.75-.75h39.33c.41,0,.75.34.75.75s-.34.75-.75.75Z"></path></g></g><g><g><g><rect class="cls-2" x="106.03" y="140.88" width="65.63" height="15.38" rx="7.69" ry="7.69"></rect><path class="cls-3" d="M163.97,157.01h-50.25c-4.65,0-8.44-3.79-8.44-8.44s3.79-8.44,8.44-8.44h50.25c4.65,0,8.44,3.79,8.44,8.44s-3.79,8.44-8.44,8.44ZM113.71,141.63c-3.83,0-6.94,3.11-6.94,6.94s3.11,6.94,6.94,6.94h50.25c3.83,0,6.94-3.11,6.94-6.94s-3.11-6.94-6.94-6.94h-50.25Z"></path></g><circle class="cls-1" cx="113.6" cy="148.57" r="4.48"></circle></g><g><path class="cls-3" d="M142.09,147.46h-18.38c-.41,0-.75-.34-.75-.75s.34-.75.75-.75h18.38c.41,0,.75.34.75.75s-.34.75-.75.75Z"></path><path class="cls-3" d="M163.04,151.18h-39.33c-.41,0-.75-.34-.75-.75s.34-.75.75-.75h39.33c.41,0,.75.34.75.75s-.34.75-.75.75Z"></path></g></g><g><g><g><rect class="cls-2" x="116.26" y="117.14" width="65.63" height="15.38" rx="7.69" ry="7.69" transform="translate(298.16 249.66) rotate(180)"></rect><path class="cls-3" d="M174.21,133.27h-50.25c-4.65,0-8.44-3.79-8.44-8.44s3.79-8.44,8.44-8.44h50.25c4.65,0,8.44,3.79,8.44,8.44s-3.79,8.44-8.44,8.44ZM123.95,117.89c-3.83,0-6.94,3.11-6.94,6.94s3.11,6.94,6.94,6.94h50.25c3.83,0,6.94-3.11,6.94-6.94s-3.11-6.94-6.94-6.94h-50.25Z"></path></g><circle class="cls-1" cx="174.32" cy="124.83" r="4.48"></circle></g><g><path class="cls-3" d="M143.49,123.72h-18.15c-.41,0-.75-.34-.75-.75s.34-.75.75-.75h18.15c.41,0,.75.34.75.75s-.34.75-.75.75Z"></path><path class="cls-3" d="M158.15,123.72h-10.94c-.41,0-.75-.34-.75-.75s.34-.75.75-.75h10.94c.41,0,.75.34.75.75s-.34.75-.75.75Z"></path><path class="cls-3" d="M164.21,127.44h-39.33c-.41,0-.75-.34-.75-.75s.34-.75.75-.75h39.33c.41,0,.75.34.75.75s-.34.75-.75.75Z"></path></g></g><path class="cls-3" d="M154.78,198.83l-3.19.85c-.46.12-.78.54-.78,1.02v-2.46c0-.58-.47-1.05-1.05-1.05h-15.18c-.58,0-1.05.47-1.05,1.05v8.73c0,.58.47,1.05,1.05,1.05h15.18c.58,0,1.05-.47,1.05-1.05v-2.46c0,.48.32.89.78,1.02l3.19.85c.67.18,1.32-.33,1.32-1.02v-5.5c0-.69-.65-1.19-1.32-1.02Z"></path></g><g id="Presenter"><g><g id="Character_and_chair" data-name="Character and chair"><g><path class="cls-2" d="M264.13,200.59s-52.09-11.14-64.17-17.88c0,0-6.59-14.59-8.94-14.43s3.45,13.18,3.45,13.18c0,0-20.71-7.22-21.81-5.18s1.37,2.63,1.37,2.63c0,0-2.41-.13-2.63,1.61-.13,1.08,1.33,1.64,1.33,1.64,0,0-2.74.08-2.59,1.65.16,1.57,2.2,1.57,2.2,1.57,0,0-3.45-.31-2.04,1.88,1.41,2.2,19.14,8.47,29.49,13.02,10.35,4.55,73.27,33.57,73.27,33.57l-8.94-33.26Z"></path><path class="cls-3" d="M273.07,234.6c-.11,0-.21-.02-.31-.07-.63-.29-63.02-29.07-73.25-33.57-3.44-1.51-7.75-3.23-11.91-4.9-10.44-4.18-16.89-6.82-17.91-8.4-.64-1-.49-1.69-.25-2.09.12-.2.28-.36.46-.48-.25-.31-.44-.71-.49-1.21-.05-.53.1-1.02.45-1.41.3-.34.72-.58,1.14-.73-.25-.36-.4-.8-.33-1.32.12-.97.71-1.55,1.41-1.88-.1-.13-.19-.28-.26-.44-.2-.45-.33-1.2.19-2.18.9-1.66,7.99-.23,21.1,4.26-1.67-3.92-4.15-10.36-3.13-12.05.22-.37.57-.58,1-.61.02,0,.04,0,.07,0,2.48,0,6.97,9.05,9.51,14.65,12.24,6.63,63.23,17.58,63.74,17.69.27.06.49.27.57.54l8.94,33.26c.08.28-.02.58-.24.77-.14.12-.31.18-.48.18ZM170.72,186.34s0,.15.23.5c.81,1.26,9.9,4.9,17.21,7.82,4.18,1.67,8.5,3.4,11.96,4.92,9.36,4.11,62.32,28.53,71.82,32.91l-8.41-31.27c-5.46-1.18-52.35-11.4-63.93-17.87-.14-.08-.25-.2-.32-.35-2.85-6.31-6.67-13.19-8.07-13.93-.25,1.37,1.77,7.17,3.95,12.07.12.27.07.59-.13.81s-.52.3-.8.2c-8.97-3.12-19.43-6.07-20.94-5.44-.15.31-.19.57-.1.76.18.4.82.64,1.03.69.38.09.62.46.56.84-.06.38-.37.68-.78.64-.01,0-1.71-.07-1.84.95-.05.4.68.78.86.85.33.13.52.48.46.83s-.36.61-.71.62c-.55.02-1.47.2-1.78.55-.06.07-.1.14-.08.27.07.66.84.83,1.23.88.11,0,.21.01.28.02.4.04.7.38.68.78-.02.4-.35.72-.75.72-.1,0-.21,0-.33-.02-.61-.02-1.2.11-1.31.24h0Z"></path></g><g><path class="cls-2" d="M371.44,134.84c.47-5.02-3.45-9.41-7.53-12.39s-8.79-5.49-11.3-9.88c-4.55-7.84-1.57-17.73-5.65-26.04-3.77-7.84-10.98-13.34-19.61-15.06-6.43-1.26-13.96-.94-19.3,2.98-5.33,3.92-9.41,10.35-10.51,16.94-4.43,29.22-.48,50.4,4.24,53.72,12.39,8.72,74.16,9.71,69.64-10.26Z"></path><path class="cls-3" d="M334.7,151.8c-14.15,0-28.08-2.39-33.33-6.08-4.85-3.42-9.14-24.24-4.55-54.45,1.11-6.67,5.25-13.35,10.8-17.43,4.78-3.51,12.02-4.64,19.88-3.11,8.94,1.79,16.28,7.43,20.14,15.47,2.03,4.14,2.36,8.65,2.69,13.01.34,4.67.67,9.08,2.94,12.98,1.9,3.32,5.23,5.6,8.44,7.8.89.61,1.78,1.22,2.65,1.85,3.15,2.3,8.33,7.03,7.85,12.95.89,4.13-.77,7.64-4.93,10.43-6.94,4.65-19.85,6.58-32.57,6.58ZM320.8,71.55c-4.87,0-9.17,1.2-12.3,3.49-5.25,3.86-9.16,10.17-10.21,16.46-4.43,29.21-.49,49.87,3.93,52.98,9.46,6.66,50.27,8.82,64.21-.51,3.63-2.43,5.07-5.45,4.28-8.97-.02-.08-.02-.16-.02-.24.49-5.24-4.32-9.59-7.23-11.72-.85-.62-1.73-1.22-2.61-1.82-3.36-2.3-6.83-4.67-8.9-8.29-2.44-4.2-2.79-8.99-3.13-13.62-.31-4.22-.63-8.58-2.54-12.46-3.66-7.62-10.61-12.96-19.08-14.66-2.21-.43-4.36-.64-6.41-.64Z"></path></g><path class="cls-1" d="M288.13,153.83s-22.01,29.83-26.2,35.88c-4.19,6.05-3.72,8.38-3.72,8.38,0,0-.63,5.53,13.96,38.16,12.86-6.43,34.31-43.2,34.31-43.2l-18.36-39.22Z"></path><path class="cls-1" d="M360.58,242.57h-71.04c-2.76-16.85-9.62-62.06-7.17-80.91,1.34-2.09,3.79-5.44,4.5-6.88,6.74-13.65,34.82-16.79,34.82-16.79,26.67-1.41,34.52-.15,38.76,4.24,7.15,12.96-.17,51.31-3.9,78.82-1.17,8.6,1.29,16.15,4.03,21.52Z"></path><g><rect class="cls-2" x="255.72" y="232.76" width="79.51" height="9.08"></rect><path class="cls-3" d="M335.23,242.59h-79.51c-.41,0-.75-.34-.75-.75v-9.08c0-.41.34-.75.75-.75h79.51c.41,0,.75.34.75.75v9.08c0,.41-.34.75-.75.75ZM256.47,241.09h78.01v-7.58h-78.01v7.58Z"></path></g><path class="cls-3" d="M407.45,243.32h-209.04c-.41,0-.75-.34-.75-.75s.34-.75.75-.75h209.04c.41,0,.75.34.75.75s-.34.75-.75.75Z"></path><g><path class="cls-2" d="M313.39,128.42l-.16,16.47s1.73,9.1,11.61,6.43c5.96-1.73,10.83-6.12,13.34-11.77l-1.1-28.4c-1.26-5.02-1.88-10.2-1.73-15.22-12.08-.16-21.65-9.41-21.65-9.41,0,0-4.24,6.28-5.96,8.31-1.41,1.41-2.67,3.14-3.77,5.02-1.73,3.14-1.57,7.06-1.57,10.67,0,4.08.47,8.31,1.26,12.39,1.73,7.37,9.73,5.49,9.73,5.49Z"></path><path class="cls-3" d="M321.43,152.56c-1.78,0-3.36-.43-4.73-1.29-3.39-2.12-4.17-6.08-4.2-6.24,0-.05-.01-.1-.01-.15l.15-15.58c-1.38.16-4.04.23-6.31-1.17-1.72-1.07-2.86-2.76-3.39-5.03-.85-4.41-1.27-8.62-1.27-12.57v-.83c-.01-3.5-.03-7.13,1.66-10.2,1.21-2.07,2.51-3.81,3.89-5.19,1.64-1.94,5.83-8.14,5.87-8.2.12-.18.32-.3.54-.33.22-.02.44.05.6.21.09.09,9.51,9.05,21.14,9.2.2,0,.39.09.53.23.14.15.21.34.21.54-.15,4.83.42,9.88,1.7,15.01.01.05.02.1.02.15l1.1,28.4c0,.12-.02.23-.06.33-2.65,5.97-7.69,10.41-13.81,12.18-1.28.35-2.49.52-3.62.52ZM313.98,144.82c.11.49.91,3.56,3.52,5.2,1.87,1.17,4.27,1.36,7.14.59,5.63-1.63,10.28-5.71,12.77-11.19l-1.09-28.14c-1.24-4.97-1.82-9.88-1.75-14.6-10.22-.44-18.41-6.96-20.75-9-1.17,1.72-4.12,6.01-5.52,7.66-1.33,1.33-2.56,2.97-3.69,4.91-1.49,2.71-1.48,6.14-1.47,9.45v.84c0,3.85.42,7.97,1.24,12.25,1.53,6.52,8.53,4.97,8.82,4.9.22-.05.46,0,.64.15.18.14.28.36.28.59l-.16,16.39Z"></path></g><g><path class="cls-2" d="M321.55,152.58c-1.73,0-3.29-.47-4.71-1.26-2.2-1.41-3.61-3.77-4.08-6.28v-15.69c-2.2.31-4.39-.16-6.28-1.26-1.88-1.26-2.98-3.14-3.45-5.33-.78-4.08-1.26-8.31-1.26-12.55-.16-3.45-.16-7.53,1.57-10.98,1.1-1.88,2.51-3.45,4.08-5.02,1.73-1.88,5.8-8.16,5.96-8.16.16-.16.31-.31.47-.31s.47,0,.63.16c.16,0,9.57,8.94,21.18,9.1.16,0,.31.16.47.16.16.16.31.31.31.47-.16,4.71.16,9.26,1.41,13.81.16.47.16.94.31,1.41h0s0,.47,1.1,28.4v.31c-2.51,5.96-7.53,10.51-13.81,12.24-1.41.47-2.67.78-3.92.78Z"></path><path class="cls-3" d="M321.55,153.33c-1.75,0-3.46-.45-5.07-1.35-2.31-1.48-3.92-3.95-4.45-6.79,0-.05-.01-.09-.01-.14v-14.86c-2.04.11-4.1-.38-5.9-1.44-1.99-1.33-3.26-3.28-3.81-5.82-.84-4.39-1.27-8.66-1.27-12.71-.17-3.8-.1-7.83,1.65-11.32,1.22-2.1,2.75-3.75,4.22-5.21,1.02-1.11,3.03-4.02,4.36-5.95.93-1.34,1.34-1.94,1.6-2.21h0c.21-.21.53-.53,1-.53.22,0,.72,0,1.09.31.1.07.21.16.37.29,6.6,5.49,13.83,8.56,20.36,8.65.25,0,.44.1.56.16,0,0,.01,0,.01,0,.16.02.3.1.41.21.21.21.54.53.54,1-.17,5.24.27,9.55,1.38,13.61.08.24.13.51.17.78.03.2.06.4.13.59.03.08.04.16.04.24,0,.03.03,1.29,1.1,28.37v.34c0,.1-.02.2-.06.29-2.64,6.28-7.86,10.9-14.3,12.67-1.18.39-2.63.81-4.12.81ZM313.51,144.98c.47,2.41,1.83,4.49,3.73,5.72,1.35.75,2.81,1.14,4.3,1.14,1.01,0,2.12-.22,3.68-.75,5.99-1.65,10.81-5.9,13.29-11.68v-.16c-.81-20.51-1.06-27.29-1.09-28.27-.07-.24-.11-.47-.15-.71-.03-.2-.06-.39-.13-.59-1.16-4.19-1.62-8.59-1.46-13.86-.05-.02-.09-.04-.13-.06,0,0,0,0,0,0-6.86-.12-14.38-3.32-21.21-9-.12-.1-.2-.17-.25-.21-.02-.01-.04-.03-.06-.04,0,0-.02,0-.03,0-.03.03-.06.06-.09.09-.01.01-.03.03-.05.04-.18.22-.79,1.1-1.38,1.96-1.44,2.08-3.4,4.92-4.51,6.13-1.42,1.42-2.87,2.98-3.98,4.89-1.57,3.14-1.63,6.94-1.47,10.57,0,3.98.42,8.16,1.24,12.44.46,2.13,1.51,3.77,3.13,4.85,1.73,1.01,3.79,1.42,5.75,1.14.22-.03.43.03.6.18.16.14.26.35.26.57v15.62ZM335.76,95.85h0ZM335.65,95.75h.01-.01ZM336.14,94.41h0,0ZM313.96,86.44h0,0Z"></path></g><g><path class="cls-3" d="M313.27,137.41s6.59.31,10.98-4.08c2.51-2.35,3.77-5.49,3.61-8.94,0,0-7.22,4.86-14.75,5.02l.16,8Z"></path><path class="cls-3" d="M313.6,138.16c-.21,0-.33,0-.37,0-.39-.02-.71-.34-.71-.73l-.16-8c0-.41.32-.76.73-.76,7.23-.15,14.27-4.84,14.34-4.89.22-.15.51-.17.76-.05s.4.37.41.64c.17,3.66-1.2,7.04-3.84,9.52-4.01,4.01-9.67,4.29-11.16,4.29ZM313.88,130.12l.13,6.53c1.75-.07,6.43-.57,9.72-3.85,2.05-1.92,3.2-4.34,3.38-7.06-2.29,1.34-7.56,4.05-13.22,4.39Z"></path></g><g><path class="cls-2" d="M315.37,103.93s-5.33,7.84-4.08,9.26c1.26,1.41,4.71.47,4.71.47"></path><path class="cls-3" d="M313.7,114.72c-1.08,0-2.25-.22-2.97-1.03-1.43-1.61,1.9-7.07,4.02-10.18.23-.34.7-.43,1.04-.2.34.23.43.7.2,1.04-2.53,3.71-4.45,7.62-4.12,8.36.7.78,2.95.49,3.93.22.4-.11.81.13.92.53.11.4-.13.81-.53.92-.21.06-1.3.34-2.5.34Z"></path></g><ellipse class="cls-3" cx="309.86" cy="103.58" rx="1.73" ry=".94" transform="translate(194.2 409.13) rotate(-87.75)"></ellipse><ellipse class="cls-3" cx="321.99" cy="103.58" rx="1.73" ry=".94" transform="translate(205.85 421.25) rotate(-87.75)"></ellipse><path class="cls-1" d="M360.46,142.23s27.93,55.54,37.02,68.56,8.16,31.06,8.16,31.06l-27.61-2.04s-25.26-41.1-32.48-51.3l14.9-46.28Z"></path><g><path class="cls-2" d="M405.79,241.69s-9.88-18.04-22.91-20.24c-13.02-2.2-58.48,6.36-58.48,6.36,0,0-12.7-2.31-22.69-.7-6.76,1.09-13.74,4.39-12.57,5.41,1.89,1.68,8.83-.71,16.75,1.05,5.28,1.17,8.9,6.28,15.18,6.63.98.05,5.24.35,9.6-.35,22.65,1.8,75.48,6.79,75.1,1.83Z"></path><path class="cls-3" d="M392.76,244.58c-12.55,0-32.38-1.52-53.45-3.26-3.16-.26-6.06-.5-8.58-.7-4.19.66-8.18.43-9.5.35h-.17c-3.74-.22-6.52-1.99-9.22-3.7-2.01-1.28-3.91-2.48-6.09-2.96-4.07-.9-7.86-.69-10.9-.51-2.94.17-5.06.29-6.19-.71-.33-.29-.46-.72-.33-1.15.55-1.93,7.76-4.67,13.28-5.56,9.56-1.55,21.33.42,22.8.68,3.25-.61,45.82-8.5,58.61-6.34,13.23,2.23,23.03,19.87,23.44,20.62.05.09.08.2.09.3.02.3-.04.76-.47,1.19-1.26,1.25-6.08,1.76-13.31,1.76ZM330.7,239.11s.04,0,.06,0c2.55.2,5.48.45,8.68.71,11.96.99,28.33,2.34,41.6,2.94,20.18.91,23.46-.41,23.96-.96-1.26-2.18-10.55-17.63-22.23-19.61-12.74-2.14-57.76,6.28-58.21,6.36-.09.02-.18.02-.27,0-.13-.02-12.69-2.27-22.44-.7-5.73.92-10.82,3.28-11.9,4.29.86.38,2.71.27,4.82.16,3.14-.18,7.04-.4,11.31.54,2.43.54,4.53,1.87,6.57,3.16,2.53,1.61,5.15,3.27,8.5,3.46h.17c3.45.21,6.57.09,9.27-.34.04,0,.08,0,.12,0ZM289.65,231.96h0s0,0,0,0Z"></path></g></g><g><line class="cls-2" x1="178.66" y1="183.5" x2="172.03" y2="181.99"></line><path class="cls-3" d="M178.66,184.25c-.06,0-.11,0-.17-.02l-6.63-1.52c-.4-.09-.66-.5-.56-.9.09-.4.51-.66.9-.56l6.63,1.52c.4.09.66.5.56.9-.08.35-.39.58-.73.58Z"></path></g><g><line class="cls-2" x1="177.71" y1="186.77" x2="171.39" y2="185.2"></line><path class="cls-3" d="M177.71,187.52c-.06,0-.12,0-.18-.02l-6.32-1.57c-.4-.1-.65-.51-.55-.91.1-.4.51-.65.91-.55l6.32,1.57c.4.1.65.51.55.91-.08.34-.39.57-.73.57Z"></path></g><g><line class="cls-2" x1="179.42" y1="180.42" x2="174.04" y2="178.9"></line><path class="cls-3" d="M179.42,181.17c-.07,0-.14,0-.2-.03l-5.39-1.52c-.4-.11-.63-.53-.52-.92.11-.4.53-.63.92-.52l5.39,1.52c.4.11.63.53.52.92-.09.33-.39.55-.72.55Z"></path></g><path class="cls-3" d="M287.53,229.32c-.38,0-.7-.28-.74-.67-.68-6.11-1.71-14.2-2.69-22.03-.83-6.59-1.62-12.82-2.19-17.75-1.87-16.11,7.6-33.24,8-33.96.2-.36.66-.49,1.02-.29.36.2.49.66.29,1.02-.1.17-9.63,17.43-7.82,33.06.57,4.93,1.36,11.15,2.19,17.74.99,7.83,2.01,15.94,2.7,22.06.05.41-.25.78-.66.83-.03,0-.06,0-.08,0Z"></path><g><path class="cls-2" d="M335.73,103.93s5.88-4.33,7.3,1.38c1.13,4.52-4.12,10.19-7.29,10.61,0,0-.81,2.42-1.95,3.25"></path><path class="cls-3" d="M333.8,119.92c-.23,0-.46-.11-.61-.31-.24-.34-.17-.8.17-1.05.69-.5,1.4-2.03,1.68-2.88.09-.27.33-.47.61-.5,1.54-.21,3.73-1.93,5.19-4.09.78-1.15,2.01-3.41,1.46-5.6-.3-1.22-.84-1.97-1.61-2.25-1.51-.55-3.78.75-4.52,1.29-.33.24-.8.17-1.05-.16-.24-.33-.17-.8.16-1.05.13-.1,3.34-2.43,5.92-1.5,1.26.46,2.13,1.57,2.56,3.3.51,2.04-.09,4.46-1.68,6.81-1.58,2.33-3.89,4.17-5.78,4.64-.31.8-1.05,2.46-2.07,3.2-.13.1-.29.14-.44.14Z"></path></g><g><path class="cls-3" d="M317.08,90.29l-1.86-9.72s-10.7,4.65-12.62,13.55-.87,11.17-.87,11.17c0,0-.52-10.3,15.36-15.01Z"></path><path class="cls-3" d="M301.72,106.05c-.29,0-.56-.17-.68-.43-.12-.26-1.1-2.75.82-11.64,1.98-9.17,12.61-13.89,13.06-14.08.21-.09.45-.08.65.02.2.11.34.3.39.52l1.86,9.72c.07.38-.15.75-.52.86-15.07,4.47-14.84,13.86-14.82,14.25.02.36-.22.68-.57.76-.06.01-.12.02-.18.02ZM314.67,81.68c-2.52,1.3-9.83,5.64-11.34,12.61-.5,2.3-.79,4.14-.95,5.6,1.71-3.35,5.5-7.5,13.84-10.12l-1.55-8.09Z"></path></g><g><path class="cls-3" d="M336.54,103.16s-20.24-15.72-29.32-16.89c0,0,.17-.7,2.53-2.71,2.36-2.01,5.47-3,5.47-3,0,0,22.27,8.09,24.59,21.58l-3.27,1Z"></path><path class="cls-3" d="M336.54,103.91c-.16,0-.33-.05-.46-.16-.2-.16-20.19-15.61-28.96-16.73-.21-.03-.4-.14-.52-.32s-.16-.4-.11-.6c.07-.28.48-1.14,2.77-3.09,2.44-2.08,5.59-3.1,5.73-3.14.16-.05.33-.05.48,0,.93.34,22.7,8.39,25.08,22.16.06.37-.16.73-.52.84l-3.27,1c-.07.02-.15.03-.22.03ZM308.53,85.75c9.03,2.08,25.6,14.61,28.17,16.58l2.25-.69c-2.65-11.8-21.37-19.36-23.74-20.27-.75.27-3.13,1.2-4.97,2.77-.83.71-1.37,1.23-1.71,1.61Z"></path></g><path class="cls-3" d="M366.88,221.88c-.25,0-.49-.12-.63-.34l-19.08-29.55c-.22-.35-.12-.81.22-1.04.35-.22.81-.12,1.04.22l19.08,29.55c.22.35.12.81-.22,1.04-.13.08-.27.12-.41.12Z"></path><path class="cls-2" d="M324.06,95.75c-.14,0-.29-.04-.42-.13-6.27-4.25-15.38-8.15-15.47-8.19-.38-.16-.56-.6-.39-.98.16-.38.6-.56.98-.39.09.04,9.33,4,15.72,8.33.34.23.43.7.2,1.04-.15.21-.38.33-.62.33Z"></path></g><g><path class="cls-2" d="M309.86,118.77l11.78.63s-.72,4.02-7.01,3.24c-3.53-.44-4.77-3.87-4.77-3.87Z"></path><path class="cls-3" d="M316.16,123.49c-.5,0-1.04-.03-1.61-.1-3.94-.49-5.33-4.2-5.39-4.36-.09-.24-.05-.5.1-.7.15-.2.39-.32.64-.3l11.78.63c.21.01.41.11.55.28s.19.39.15.6c0,.04-.78,3.96-6.22,3.96ZM311.14,119.59c.61.9,1.74,2.08,3.59,2.31,3.71.46,5.22-.87,5.82-1.8l-9.4-.5Z"></path></g><g><path class="cls-2" d="M340.84,106.44s-3.81,1.87-5.23,5.35"></path><path class="cls-3" d="M335.61,112.55c-.09,0-.19-.02-.28-.06-.38-.16-.57-.59-.41-.98,1.51-3.71,5.42-5.66,5.59-5.75.37-.18.82-.03,1,.34.18.37.03.82-.34,1-.04.02-3.57,1.8-4.86,4.97-.12.29-.4.47-.69.47Z"></path></g></g><g id="Character_1" data-name="Character 1"><g id="Character_Male" data-name="Character Male"><g id="Character_Male-2" data-name="Character Male"><g><g><path class="cls-2" d="M128.25,319.01c-13.47,2.99-33.24-37.05-25.91-51.35,3.17-6.17,5.53-13.82,14.28-11.05,7.83-8.75,20.49-12.1,33.35-10.4,9.9,1.31,22.42,7.1,22.93,18.71.19,4.18-2.41,8.69-6.52,9.51-.22,12.57-5.36,21.9-12.04,32.03-4.5,6.8-10.57,12.74-17.8,16.58-3.7,1.97-8.29-4.03-8.29-4.03Z"></path><path class="cls-3" d="M134.95,324.19c-3.08,0-6.07-3.24-7-4.36-4.34.68-9.52-2.56-14.63-9.17-9.61-12.44-16.63-33.61-11.64-43.34.37-.72.73-1.46,1.09-2.2,2.64-5.45,5.62-11.62,13.62-9.36,7.62-8.24,20.17-12.08,33.69-10.29,11.38,1.5,23.08,8.09,23.58,19.42.19,4.13-2.2,8.91-6.53,10.14-.39,13-5.97,22.48-12.15,31.85-4.81,7.28-11.06,13.1-18.07,16.83-.64.34-1.29.49-1.95.49ZM128.25,318.26c.23,0,.45.11.59.29,1.17,1.53,4.79,5.19,7.35,3.83,6.79-3.62,12.85-9.27,17.52-16.33,6.15-9.31,11.69-18.73,11.92-31.63,0-.35.26-.65.6-.72,3.86-.78,6.08-5.14,5.92-8.74-.52-11.96-14.25-16.94-22.28-18-13.21-1.75-25.44,2.04-32.69,10.15-.2.22-.5.3-.78.21-7.11-2.24-9.62,2.95-12.28,8.45-.36.75-.73,1.5-1.1,2.23-4.66,9.09,2.35,29.9,11.49,41.74,4.92,6.36,9.74,9.4,13.58,8.54.05-.01.11-.02.16-.02Z"></path></g><g><path class="cls-2" d="M170.33,286.64s10.96,13.04,9.36,16.18-8.23,1.94-8.23,1.94"></path><path class="cls-3" d="M174.21,305.74c-1.53,0-2.75-.21-2.88-.24-.41-.07-.68-.46-.6-.87.07-.41.46-.67.87-.61,1.69.31,6.32.62,7.43-1.54.85-1.67-4.15-9.27-9.26-15.36-.27-.32-.23-.79.09-1.06.32-.27.79-.23,1.06.09,1.88,2.24,11.19,13.59,9.45,17.01-1.08,2.13-3.94,2.58-6.15,2.58Z"></path></g><g><path class="cls-2" d="M166.19,268.22c6.5,4.17,5.96,14.61,6.66,21.27,1.01,9.38,1.8,18.78,2.38,28.2.36,5.98-15.01,7.87-17.93,6.41l5.11,23.19-33.74-8.67-.92-19.55s10.48-1.13,15.09-13.94c2.25-6.23,10.8-3.98,10.45-11.99-.45-10.19,1.31-29.51,10.86-25.91.75.28,1.43.61,2.02.99h.02Z"></path><path class="cls-3" d="M162.41,348.04c-.06,0-.12,0-.19-.02l-33.75-8.67c-.32-.08-.55-.36-.56-.69l-.92-19.55c-.02-.39.27-.74.67-.78.41-.05,10.08-1.26,14.46-13.45,1.09-3.03,3.56-4.25,5.73-5.32,2.71-1.34,4.85-2.4,4.68-6.38-.34-7.79.55-22.04,6.08-26.05,1.68-1.21,3.63-1.42,5.79-.6.78.29,1.47.63,2.07,1,.04.02.08.04.12.06,5.72,3.67,6.27,11.74,6.71,18.22.09,1.28.17,2.49.29,3.6,1,9.25,1.8,18.75,2.38,28.23.07,1.19-.35,2.93-2.75,4.52-3.89,2.57-11.39,3.57-14.93,2.99l4.84,21.97c.06.25-.02.52-.21.7-.14.14-.33.21-.52.21ZM129.39,338.03l32.03,8.23-4.85-22c-.06-.28.04-.58.27-.75.23-.18.54-.21.8-.08,1.91.95,10.61.23,14.77-2.52,1.45-.96,2.14-2.02,2.07-3.17-.58-9.47-1.38-18.94-2.38-28.17-.12-1.13-.2-2.36-.29-3.65-.42-6.11-.93-13.7-5.93-17-.04-.02-.08-.04-.12-.06-.53-.34-1.16-.65-1.88-.92-1.69-.64-3.12-.51-4.38.41-4.36,3.16-5.89,15.05-5.46,24.77.22,4.96-2.82,6.47-5.51,7.79-2.1,1.04-4.09,2.02-4.98,4.49-4.08,11.32-12.51,13.81-15.01,14.31l.86,18.33Z"></path></g><g><path class="cls-2" d="M152.77,296.62s.63-7.26-4.9-10.45c-3.35-1.94-5.26,4.38-4.52,11.87.49,4.9,2.22,8.56,6.45,11.1"></path><path class="cls-3" d="M149.8,309.89c-.13,0-.26-.03-.38-.11-4.16-2.5-6.26-6.09-6.81-11.67-.51-5.1.13-10.97,2.68-12.62.62-.4,1.65-.73,2.96.03,5.88,3.39,5.3,10.85,5.28,11.17-.04.41-.39.72-.81.68-.41-.04-.72-.4-.68-.81,0-.07.51-6.83-4.53-9.74-.71-.41-1.13-.23-1.39-.07-1.42.92-2.6,5.16-2,11.21.5,5.05,2.38,8.3,6.09,10.53.36.21.47.67.26,1.03-.14.23-.39.36-.64.36Z"></path></g><ellipse class="cls-3" cx="168.66" cy="284.78" rx="1.33" ry="3.37" transform="translate(-5.77 3.5) rotate(-1.17)"></ellipse></g><path class="cls-1" d="M101.35,425.49c-.27-28.58-.94-57.67-1.16-75.25-.01-.65.02-1.29.08-1.92.28-3.14,1.35-6.06,3-8.56,3.32-5.04,9.02-8.36,15.51-8.31,3.11.03,6.32.17,9.56.37,6.1.38,12.23.94,17.6,1.28,4.92.3,9.45.73,13.61,1.25,20.71,2.57,32.45,7.45,39.05,11.82.27.18.54.37.79.54.8.56,1.51,1.1,2.15,1.62,4.46,3.67,5.31,6.54,5.31,6.54.5.78.97,1.86,1.44,3.2,2.16,6.33,3.85,18.56,5.16,33.02.3,3.34.59,6.79.85,10.32.35,4.61.65,9.34.93,14.1.19,3.33.38,6.67.55,9.99h-114.45Z"></path><g><path class="cls-3" d="M157.32,324.12s-12.55-2.68-15.75-6.17c0,0,1.19,4.78,6.25,7.87,5.67,3.47,10.95,4.86,10.95,4.86l-1.45-6.57Z"></path><path class="cls-3" d="M158.76,331.43c-.06,0-.13,0-.19-.02-.22-.06-5.44-1.46-11.15-4.95-5.26-3.22-6.53-8.12-6.59-8.33-.08-.33.07-.68.37-.84.3-.16.68-.1.91.15,3,3.27,15.23,5.92,15.35,5.94.29.06.51.29.58.57l1.45,6.57c.06.25-.02.52-.21.7-.14.14-.33.21-.52.21ZM143.36,320.2c.87,1.52,2.37,3.47,4.85,4.99,3.92,2.4,7.69,3.8,9.54,4.41l-1.07-4.85c-1.93-.44-9.1-2.16-13.32-4.55Z"></path></g></g></g><path class="cls-3" d="M167.87,310.34c-.32,0-.61-.2-.71-.52-.13-.39.08-.82.48-.95l4.52-1.48c.4-.13.82.09.95.48.13.39-.08.82-.48.95l-4.52,1.48c-.08.03-.16.04-.23.04Z"></path><g><path class="cls-3" d="M201.86,425.49H68.65l-10.37-38.45c-4.02-14.9,1.47-29.63,12.19-38.58,6.43-5.38,14.75-8.69,24.01-8.69h55.52c3.85,0,7.59.59,11.13,1.68,10.64,3.3,19.41,11.25,23.65,21.78.55,1.38,1.03,2.8,1.42,4.26l8.36,30.97,2.85,10.57,4.45,16.45Z"></path><path class="cls-2" d="M178.48,426.24c-.33,0-.63-.22-.72-.55l-13.34-49.43c-4.33-16-18.92-27.18-35.48-27.18h-55.52c-.41,0-.75-.34-.75-.75s.34-.75.75-.75h55.52c17.24,0,32.43,11.63,36.93,28.29l13.34,49.43c.11.4-.13.81-.53.92-.07.02-.13.03-.2.03Z"></path></g></g><g id="Character_2" data-name="Character 2"><g id="Character_Female" data-name="Character Female"><g id="Character_female" data-name="Character female"><path class="cls-1" d="M393.91,328.77s12.02,6.61,32.51,78.32l-36.98,13.42,4.47-91.72h0Z"></path><g><path class="cls-2" d="M334.16,270.24s-10.85,12.36-9.37,15.43c1.48,3.07,7.91,2.05,7.91,2.05"></path><path class="cls-3" d="M330.38,288.63c-2.19,0-5.2-.43-6.26-2.63-1.57-3.26,6.86-13.26,9.48-16.25.27-.31.75-.34,1.06-.07.31.27.34.75.07,1.06-5.06,5.76-10.04,12.99-9.26,14.61,1.01,2.1,5.48,1.89,7.12,1.63.41-.06.79.22.86.62.07.41-.21.79-.62.86-.11.02-1.12.17-2.44.17Z"></path></g><g><path class="cls-2" d="M338.54,252.54c-6.36,3.88-6.05,13.98-6.88,20.4-1.16,9.04-2.13,18.1-2.88,27.18-.48,5.76,10.63,6.99,16.92,7.41l-5.17,21.45,32.76-7.67,2.59-26.23s-9.79-1.27-13.99-13.72c-4.19-12.44-1.49-30.34-1.49-30.34,0,0-15.66-2.26-21.87,1.53h.01Z"></path><path class="cls-3" d="M340.53,329.73c-.2,0-.39-.08-.53-.22-.18-.18-.26-.45-.2-.7l4.97-20.58c-5.56-.42-12.77-1.39-15.57-4.65-.88-1.02-1.27-2.2-1.16-3.51.74-8.96,1.71-18.12,2.88-27.21.14-1.07.24-2.24.35-3.48.56-6.22,1.25-13.95,6.78-17.41.03-.02.06-.04.09-.06,6.36-3.89,21.72-1.73,22.37-1.63.2.03.38.13.49.29s.17.36.14.56c-.03.18-2.62,17.87,1.46,29.99,3.99,11.83,13,13.17,13.38,13.22.4.05.69.42.65.82l-2.59,26.23c-.03.32-.26.58-.58.66l-32.76,7.67c-.06.01-.11.02-.17.02ZM339.01,253.12s-.05.04-.08.06c-4.97,3.03-5.63,10.4-6.16,16.32-.11,1.26-.22,2.44-.36,3.54-1.17,9.08-2.14,18.21-2.88,27.15-.08.9.19,1.69.8,2.4,2.88,3.35,12.32,3.99,15.42,4.19.22.01.42.13.55.3.13.18.18.41.12.62l-4.89,20.26,31.05-7.27,2.47-25.02c-2.42-.56-10.21-3.16-13.89-14.09-3.76-11.17-2.1-26.34-1.63-29.93-3.13-.38-15.33-1.61-20.54,1.47Z"></path></g><path class="cls-1" d="M301.29,425.49h105.22c-.34-3.47-.68-7.1-1.04-10.8-.43-4.33-.87-8.78-1.33-13.29-.31-3.1-.65-6.22-.98-9.34-1.69-15.89-3.54-31.64-5.36-43.74-.46-3.12-.92-5.99-1.37-8.56-.87-4.88-1.72-8.68-2.51-10.98h-.01c-2.36-6.83-10.52-10.81-20.6-12.45-4.68-.77-9.78-1.04-14.9-.84-5.11.18-10.24.82-15.01,1.86-7.88,1.71-14.78,4.5-19.01,8.14h-.01c-6.2,5.35-10.48,18.59-13.37,32.85-4.64,22.74-5.81,48.06-5.81,48.06l-3.92,19.09Z"></path><path class="cls-3" d="M345.95,306.68s7.65.69,11.95-4.09c0,0-1.58,9.06-13.9,11.42l1.95-7.33Z"></path><ellipse class="cls-3" cx="335.73" cy="269.16" rx="3.26" ry="1.28" transform="translate(44.95 586.36) rotate(-86.21)"></ellipse><path class="cls-3" d="M401.03,247.15c9.22,12.19,10.79,28.48,10.22,43.75-.55,15.27-2.88,30.7-.07,45.72,2.49,13.37,8.98,27.05,4.7,39.96-2.51,7.59-8.58,13.68-15.61,17.49-7.04,3.81-15.02,5.55-22.96,6.51-10.24,1.23-26.59,2.24-34.69-5.79-2.92-2.9-4.72-6.75-5.9-10.7-3.45-11.54-1.92-24.16,2.39-35.41,5.32-13.87,21.12-55.54,19.19-58.99-3.99-7.13-4.91-14.57-3.97-22.04-3.67-3.89-5.28-5.6-8.95-9.49-5.23.39-10.49.15-11.81-2.87-2.17-4.98-.92-18.32,16.72-23.61,17.13-7.54,39.28.35,50.72,15.47h0Z"></path><g><path class="cls-2" d="M353.08,275.1c6.96-8.24,15.62,10.72,3.95,17.64"></path><path class="cls-3" d="M357.03,293.49c-.26,0-.51-.13-.65-.37-.21-.36-.09-.82.26-1.03,3.87-2.3,5.84-6.45,5.26-11.1-.43-3.47-2.26-6.44-4.36-7.06-1.65-.49-3.03.62-3.9,1.65-.27.32-.74.36-1.06.09-.32-.27-.36-.74-.09-1.06,1.63-1.93,3.57-2.68,5.47-2.12,2.69.8,4.92,4.22,5.42,8.31.65,5.26-1.59,9.96-5.99,12.57-.12.07-.25.11-.38.11Z"></path></g></g><g><path class="cls-2" d="M332.83,293.42s2.07,1.37,4.35-.39"></path><path class="cls-3" d="M334.73,294.68c-1.32,0-2.24-.6-2.3-.64-.35-.23-.44-.69-.21-1.04.23-.34.69-.44,1.04-.22.08.05,1.68,1.03,3.49-.36.33-.25.8-.19,1.05.14.25.33.19.8-.14,1.05-1.05.81-2.07,1.06-2.92,1.06Z"></path></g></g><g><path class="cls-3" d="M424.72,425.49l10.37-38.45c2.24-8.31,1.52-16.58-1.41-23.8-2.32-5.74-6.04-10.82-10.78-14.78-.97-.81-2-1.58-3.06-2.29-.43-.29-.87-.58-1.32-.85-4.87-3.01-10.54-4.95-16.67-5.42-.97-.08-1.97-.12-2.96-.12h-55.52"></path><path class="cls-3" d="M343.37,339.76c-13.56,0-25.77,7.28-32.36,18.57-1.65,2.82-2.95,5.9-3.84,9.17l-15.66,57.99h133.21"></path><path class="cls-2" d="M314.89,426.24c-.06,0-.13,0-.2-.03-.4-.11-.64-.52-.53-.92l13.34-49.43c2.18-8.09,7.05-15.35,13.72-20.43,6.73-5.14,14.75-7.86,23.21-7.86h37.15c.41,0,.75.34.75.75s-.34.75-.75.75h-37.15c-8.13,0-15.84,2.61-22.3,7.55-6.49,4.95-11.05,11.74-13.18,19.63l-13.34,49.43c-.09.33-.39.55-.72.55Z"></path></g><path class="cls-2" d="M424.72,426.24c-.06,0-.13,0-.2-.03-.4-.11-.64-.52-.53-.92l10.37-38.45c2.11-7.83,1.63-15.89-1.38-23.33-2.27-5.6-5.92-10.61-10.57-14.49-.96-.8-1.97-1.56-2.99-2.25-.42-.29-.86-.57-1.29-.83-4.91-3.04-10.55-4.87-16.33-5.31-.96-.08-1.93-.12-2.91-.12h-55.52c-.41,0-.75-.34-.75-.75s.34-.75.75-.75h55.52c1.01,0,2.03.04,3.03.12,6.01.46,11.89,2.37,17,5.53.46.28.92.57,1.35.87,1.06.71,2.11,1.5,3.11,2.33,4.83,4.04,8.63,9.25,11,15.07,3.14,7.74,3.64,16.13,1.44,24.28l-10.37,38.45c-.09.33-.39.55-.72.55Z"></path></g></svg>